<svg width="30" height="30" viewBox="0 0 30 30" fill="none" xmlns="http://www.w3.org/2000/svg">
<rect x="0.75" y="0.75" width="28.5" height="28.5" rx="6.25" fill="#FF0000" stroke="#FF0000" stroke-width="1.5"/>
<mask id="path-2-outside-1_2837_3094" maskUnits="userSpaceOnUse" x="6" y="9" width="18" height="13" fill="black">
<rect fill="white" x="6" y="9" width="18" height="13"/>
<path d="M13.872 21H7.072V19.48L9.68 16.792C10.4693 15.9813 11.024 15.3467 11.344 14.888C11.664 14.4293 11.824 13.928 11.824 13.384C11.824 12.8293 11.6693 12.4347 11.36 12.2C11.0507 11.9653 10.544 11.848 9.84 11.848C9.17867 11.848 8.448 11.9227 7.648 12.072L7.248 12.136L7.136 10.728C8.17067 10.4187 9.24267 10.264 10.352 10.264C12.56 10.264 13.664 11.2453 13.664 13.208C13.664 13.976 13.4933 14.6427 13.152 15.208C12.8213 15.7733 12.224 16.456 11.36 17.256L9.104 19.448H13.872V21ZM22.6971 10.44V12.008H17.8011L17.5291 14.792C18.2545 14.4613 18.9691 14.296 19.6731 14.296C21.9345 14.296 23.0651 15.352 23.0651 17.464C23.0651 18.6587 22.7505 19.576 22.1211 20.216C21.5025 20.856 20.6225 21.176 19.4811 21.176C19.0011 21.176 18.4571 21.128 17.8491 21.032C17.2411 20.9467 16.7558 20.8613 16.3931 20.776L15.8491 20.632L16.0411 19.288C17.2998 19.5013 18.3771 19.608 19.2731 19.608C19.8918 19.608 20.3718 19.4373 20.7131 19.096C21.0545 18.7547 21.2251 18.2693 21.2251 17.64C21.2251 17.0107 21.0758 16.5573 20.7771 16.28C20.4785 16.0027 20.0891 15.864 19.6091 15.864C18.7451 15.864 18.0411 15.9707 17.4971 16.184L17.2091 16.296L16.0891 16.056L16.3771 10.44H22.6971Z"/>
</mask>
<path d="M13.872 21H7.072V19.48L9.68 16.792C10.4693 15.9813 11.024 15.3467 11.344 14.888C11.664 14.4293 11.824 13.928 11.824 13.384C11.824 12.8293 11.6693 12.4347 11.36 12.2C11.0507 11.9653 10.544 11.848 9.84 11.848C9.17867 11.848 8.448 11.9227 7.648 12.072L7.248 12.136L7.136 10.728C8.17067 10.4187 9.24267 10.264 10.352 10.264C12.56 10.264 13.664 11.2453 13.664 13.208C13.664 13.976 13.4933 14.6427 13.152 15.208C12.8213 15.7733 12.224 16.456 11.36 17.256L9.104 19.448H13.872V21ZM22.6971 10.44V12.008H17.8011L17.5291 14.792C18.2545 14.4613 18.9691 14.296 19.6731 14.296C21.9345 14.296 23.0651 15.352 23.0651 17.464C23.0651 18.6587 22.7505 19.576 22.1211 20.216C21.5025 20.856 20.6225 21.176 19.4811 21.176C19.0011 21.176 18.4571 21.128 17.8491 21.032C17.2411 20.9467 16.7558 20.8613 16.3931 20.776L15.8491 20.632L16.0411 19.288C17.2998 19.5013 18.3771 19.608 19.2731 19.608C19.8918 19.608 20.3718 19.4373 20.7131 19.096C21.0545 18.7547 21.2251 18.2693 21.2251 17.64C21.2251 17.0107 21.0758 16.5573 20.7771 16.28C20.4785 16.0027 20.0891 15.864 19.6091 15.864C18.7451 15.864 18.0411 15.9707 17.4971 16.184L17.2091 16.296L16.0891 16.056L16.3771 10.44H22.6971Z" fill="white"/>
<path d="M13.872 21V21.7H14.572V21H13.872ZM7.072 21H6.372V21.7H7.072V21ZM7.072 19.48L6.56961 18.9926L6.372 19.1962V19.48H7.072ZM9.68 16.792L9.17847 16.3037L9.17761 16.3046L9.68 16.792ZM11.344 14.888L10.7699 14.4875H10.7699L11.344 14.888ZM11.36 12.2L10.9369 12.7577H10.9369L11.36 12.2ZM7.648 12.072L7.75859 12.7632L7.76754 12.7618L7.77645 12.7601L7.648 12.072ZM7.248 12.136L6.5502 12.1915L6.6103 12.9469L7.35859 12.8272L7.248 12.136ZM7.136 10.728L6.93549 10.0573L6.39333 10.2194L6.4382 10.7835L7.136 10.728ZM13.152 15.208L12.5527 14.8462L12.5478 14.8546L13.152 15.208ZM11.36 17.256L10.8844 16.7424L10.8782 16.7481L10.8722 16.754L11.36 17.256ZM9.104 19.448L8.6162 18.946L7.37906 20.148H9.104V19.448ZM13.872 19.448H14.572V18.748H13.872V19.448ZM13.872 21V20.3H7.072V21V21.7H13.872V21ZM7.072 21H7.772V19.48H7.072H6.372V21H7.072ZM7.072 19.48L7.57439 19.9674L10.1824 17.2794L9.68 16.792L9.17761 16.3046L6.56961 18.9926L7.072 19.48ZM9.68 16.792L10.1815 17.2803C10.9763 16.4641 11.564 15.796 11.9181 15.2885L11.344 14.888L10.7699 14.4875C10.484 14.8973 9.96237 15.4986 9.17847 16.3037L9.68 16.792ZM11.344 14.888L11.9181 15.2885C12.3176 14.7159 12.524 14.0755 12.524 13.384H11.824H11.124C11.124 13.7805 11.0104 14.1428 10.7699 14.4875L11.344 14.888ZM11.824 13.384H12.524C12.524 12.7093 12.3329 12.0595 11.7831 11.6423L11.36 12.2L10.9369 12.7577C11.0057 12.8099 11.124 12.9493 11.124 13.384H11.824ZM11.36 12.2L11.7831 11.6423C11.287 11.266 10.5877 11.148 9.84 11.148V11.848V12.548C10.5003 12.548 10.8143 12.6646 10.9369 12.7577L11.36 12.2ZM9.84 11.848V11.148C9.12707 11.148 8.35264 11.2284 7.51955 11.3839L7.648 12.072L7.77645 12.7601C8.54336 12.617 9.23026 12.548 9.84 12.548V11.848ZM7.648 12.072L7.53741 11.3808L7.13741 11.4448L7.248 12.136L7.35859 12.8272L7.75859 12.7632L7.648 12.072ZM7.248 12.136L7.9458 12.0805L7.8338 10.6725L7.136 10.728L6.4382 10.7835L6.5502 12.1915L7.248 12.136ZM7.136 10.728L7.33651 11.3987C8.30435 11.1093 9.30871 10.964 10.352 10.964V10.264V9.564C9.17663 9.564 8.03698 9.72802 6.93549 10.0573L7.136 10.728ZM10.352 10.264V10.964C11.3671 10.964 11.9976 11.1914 12.3709 11.5232C12.7285 11.841 12.964 12.3573 12.964 13.208H13.664H14.364C14.364 12.096 14.0475 11.1403 13.3011 10.4768C12.5704 9.82731 11.5449 9.564 10.352 9.564V10.264ZM13.664 13.208H12.964C12.964 13.8696 12.8181 14.4068 12.5528 14.8462L13.152 15.208L13.7512 15.5698C14.1686 14.8786 14.364 14.0824 14.364 13.208H13.664ZM13.152 15.208L12.5478 14.8546C12.2691 15.3309 11.7313 15.9582 10.8844 16.7424L11.36 17.256L11.8356 17.7696C12.7167 16.9538 13.3735 16.2157 13.7562 15.5614L13.152 15.208ZM11.36 17.256L10.8722 16.754L8.6162 18.946L9.104 19.448L9.5918 19.95L11.8478 17.758L11.36 17.256ZM9.104 19.448V20.148H13.872V19.448V18.748H9.104V19.448ZM13.872 19.448H13.172V21H13.872H14.572V19.448H13.872ZM22.6971 10.44H23.3971V9.74H22.6971V10.44ZM22.6971 12.008V12.708H23.3971V12.008H22.6971ZM17.8011 12.008V11.308H17.1662L17.1044 11.9399L17.8011 12.008ZM17.5291 14.792L16.8324 14.7239L16.7143 15.9328L17.8195 15.4289L17.5291 14.792ZM22.1211 20.216L21.622 19.7252L21.6178 19.7295L22.1211 20.216ZM17.8491 21.032L17.9583 20.3405L17.9464 20.3388L17.8491 21.032ZM16.3931 20.776L16.214 21.4527L16.2234 21.4552L16.2328 21.4574L16.3931 20.776ZM15.8491 20.632L15.1562 20.533L15.0681 21.1494L15.67 21.3087L15.8491 20.632ZM16.0411 19.288L16.1581 18.5978L15.4498 18.4778L15.3482 19.189L16.0411 19.288ZM20.7131 19.096L21.2081 19.591V19.591L20.7131 19.096ZM17.4971 16.184L17.7508 16.8364L17.7527 16.8357L17.4971 16.184ZM17.2091 16.296L17.0625 16.9805L17.2674 17.0244L17.4628 16.9484L17.2091 16.296ZM16.0891 16.056L15.39 16.0201L15.3595 16.6155L15.9425 16.7405L16.0891 16.056ZM16.3771 10.44V9.74H15.7121L15.678 10.4041L16.3771 10.44ZM22.6971 10.44H21.9971V12.008H22.6971H23.3971V10.44H22.6971ZM22.6971 12.008V11.308H17.8011V12.008V12.708H22.6971V12.008ZM17.8011 12.008L17.1044 11.9399L16.8324 14.7239L17.5291 14.792L18.2258 14.8601L18.4978 12.0761L17.8011 12.008ZM17.5291 14.792L17.8195 15.4289C18.4657 15.1343 19.0818 14.996 19.6731 14.996V14.296V13.596C18.8565 13.596 18.0432 13.7883 17.2388 14.1551L17.5291 14.792ZM19.6731 14.296V14.996C20.7073 14.996 21.3527 15.2384 21.7393 15.5996C22.117 15.9523 22.3651 16.5286 22.3651 17.464H23.0651H23.7651C23.7651 16.2874 23.4479 15.2797 22.6949 14.5764C21.9509 13.8816 20.9003 13.596 19.6731 13.596V14.296ZM23.0651 17.464H22.3651C22.3651 18.5377 22.0845 19.2549 21.622 19.7252L22.1211 20.216L22.6202 20.7068C23.4164 19.8971 23.7651 18.7796 23.7651 17.464H23.0651ZM22.1211 20.216L21.6178 19.7295C21.1657 20.1972 20.4891 20.476 19.4811 20.476V21.176V21.876C20.7558 21.876 21.8392 21.5148 22.6244 20.7025L22.1211 20.216ZM19.4811 21.176V20.476C19.0462 20.476 18.5397 20.4324 17.9583 20.3406L17.8491 21.032L17.74 21.7234C18.3745 21.8236 18.956 21.876 19.4811 21.876V21.176ZM17.8491 21.032L17.9464 20.3388C17.3479 20.2548 16.8863 20.1729 16.5535 20.0946L16.3931 20.776L16.2328 21.4574C16.6252 21.5497 17.1343 21.6385 17.7518 21.7252L17.8491 21.032ZM16.3931 20.776L16.5723 20.0993L16.0282 19.9553L15.8491 20.632L15.67 21.3087L16.214 21.4527L16.3931 20.776ZM15.8491 20.632L16.5421 20.731L16.7341 19.387L16.0411 19.288L15.3482 19.189L15.1562 20.533L15.8491 20.632ZM16.0411 19.288L15.9241 19.9782C17.2067 20.1955 18.3253 20.308 19.2731 20.308V19.608V18.908C18.4289 18.908 17.3929 18.8071 16.1581 18.5978L16.0411 19.288ZM19.2731 19.608V20.308C20.0227 20.308 20.7013 20.0978 21.2081 19.591L20.7131 19.096L20.2182 18.601C20.0423 18.7769 19.7609 18.908 19.2731 18.908V19.608ZM20.7131 19.096L21.2081 19.591C21.7171 19.082 21.9251 18.3963 21.9251 17.64H21.2251H20.5251C20.5251 18.1424 20.3918 18.4274 20.2182 18.601L20.7131 19.096ZM21.2251 17.64H21.9251C21.9251 16.9207 21.7566 16.2343 21.2534 15.767L20.7771 16.28L20.3008 16.793C20.3949 16.8804 20.5251 17.1007 20.5251 17.64H21.2251ZM20.7771 16.28L21.2534 15.767C20.8027 15.3485 20.2324 15.164 19.6091 15.164V15.864V16.564C19.9459 16.564 20.1542 16.6568 20.3008 16.793L20.7771 16.28ZM19.6091 15.864V15.164C18.6957 15.164 17.8961 15.2756 17.2416 15.5323L17.4971 16.184L17.7527 16.8357C18.1861 16.6657 18.7946 16.564 19.6091 16.564V15.864ZM17.4971 16.184L17.2434 15.5316L16.9554 15.6436L17.2091 16.296L17.4628 16.9484L17.7508 16.8364L17.4971 16.184ZM17.2091 16.296L17.3558 15.6115L16.2358 15.3715L16.0891 16.056L15.9425 16.7405L17.0625 16.9805L17.2091 16.296ZM16.0891 16.056L16.7882 16.0919L17.0762 10.4759L16.3771 10.44L15.678 10.4041L15.39 16.0201L16.0891 16.056ZM16.3771 10.44V11.14H22.6971V10.44V9.74H16.3771V10.44Z" fill="white" mask="url(#path-2-outside-1_2837_3094)"/>
</svg>
